<!DOCTYPE svg PUBLIC "-//W3C//DTD SVG 20010904//EN" "http://www.w3.org/TR/2001/REC-SVG-20010904/DTD/svg10.dtd">
<svg version="1.0" xmlns="http://www.w3.org/2000/svg" width="100px" height="100px" viewBox="0 0 1000 1000" preserveAspectRatio="xMidYMid meet">
<g id="layer1" fill="#3c5f81" stroke="none">
 <path d="M400 799 c-26 -13 -76 -25 -117 -29 -116 -11 -173 -70 -173 -182 0 -40 6 -62 25 -90 30 -44 83 -78 122 -78 26 0 30 -5 41 -44 13 -49 65 -102 110 -111 29 -7 34 -9 75 -39 59 -41 155 -41 214 0 41 30 46 32 75 39 43 9 96 62 109 107 8 33 7 49 -5 82 -14 37 -14 45 0 85 19 57 11 108 -26 159 -35 48 -84 72 -149 72 -33 0 -65 8 -93 22 -61 32 -150 35 -208 7z m180 -80 c19 -12 38 -27 43 -34 6 -11 14 -11 45 2 114 44 193 -107 92 -175 -27 -18 -43 -22 -69 -17 -30 6 -37 3 -64 -31 -71 -86 -195 -85 -265 2 -23 29 -31 33 -62 28 -114 -17 -160 148 -54 192 33 14 42 14 75 1 35 -14 39 -14 56 5 44 50 143 63 203 27z m226 -323 c-9 -37 -33 -56 -70 -56 -21 0 -40 -8 -52 -21 -25 -27 -67 -49 -96 -49 -13 0 -39 10 -58 22 l-35 21 45 12 c59 15 99 37 129 69 18 19 35 26 60 26 20 0 43 5 51 10 21 13 34 -4 26 -34z"/>
 </g>

</svg>