<!DOCTYPE svg PUBLIC "-//W3C//DTD SVG 20010904//EN" "http://www.w3.org/TR/2001/REC-SVG-20010904/DTD/svg10.dtd">
<svg version="1.0" xmlns="http://www.w3.org/2000/svg" width="100px" height="100px" viewBox="0 0 1000 1000" preserveAspectRatio="xMidYMid meet">
<g id="layer1" fill="#3c5f81" stroke="none">
 <path d="M422 745 c-23 -7 -50 -19 -58 -26 -9 -7 -35 -12 -61 -10 -63 3 -106 -14 -147 -59 -67 -74 -68 -163 -3 -237 35 -40 81 -63 125 -63 18 0 37 -10 53 -26 36 -40 96 -64 162 -64 67 0 120 19 162 59 20 20 45 31 78 36 52 7 107 47 133 96 18 36 18 122 0 158 -36 69 -116 110 -191 98 -23 -4 -38 -1 -46 9 -14 17 -102 44 -138 43 -14 0 -45 -6 -69 -14z m136 -80 c20 -9 46 -25 58 -36 18 -17 26 -19 42 -10 50 26 113 5 137 -46 22 -45 12 -85 -28 -119 -26 -22 -38 -25 -74 -21 -40 4 -45 2 -59 -24 -19 -37 -85 -71 -139 -71 -52 0 -113 30 -142 69 -17 25 -27 29 -52 25 -77 -11 -134 55 -112 129 18 58 89 87 143 58 16 -9 24 -7 42 10 28 26 84 50 119 51 15 0 44 -7 65 -15z"/>
 </g>

</svg>