<!DOCTYPE svg PUBLIC "-//W3C//DTD SVG 20010904//EN" "http://www.w3.org/TR/2001/REC-SVG-20010904/DTD/svg10.dtd">
<svg version="1.0" xmlns="http://www.w3.org/2000/svg" width="100px" height="100px" viewBox="0 0 1000 1000" preserveAspectRatio="xMidYMid meet">
<g id="layer1" fill="#3c5f81" stroke="none">
 <path d="M492 918 c-7 -7 -12 -38 -12 -70 0 -53 3 -60 25 -70 39 -17 65 12 65 72 0 65 -44 102 -78 68z"/>
 <path d="M227 802 c-25 -28 -21 -44 21 -85 42 -41 61 -46 85 -19 25 28 21 44 -21 85 -42 41 -61 46 -85 19z"/>
 <path d="M441 726 c-18 -7 -50 -26 -71 -44 -106 -88 -107 -245 -4 -344 53 -51 83 -60 199 -63 133 -4 187 11 242 67 70 71 89 147 61 242 -16 54 -90 128 -143 143 -52 15 -240 14 -284 -1z m-18 -153 c-14 -49 -11 -120 9 -157 8 -14 7 -17 -4 -14 -23 8 -51 92 -44 131 5 29 39 87 51 87 2 0 -4 -21 -12 -47z"/>
 <path d="M112 538 c-35 -35 4 -78 70 -78 58 0 87 27 70 65 -10 22 -17 25 -70 25 -32 0 -63 -5 -70 -12z"/>
 <path d="M247 292 c-39 -40 -45 -60 -25 -80 22 -22 53 -12 93 28 35 36 37 42 27 65 -17 37 -51 32 -95 -13z"/>
 <path d="M492 228 c-7 -7 -12 -35 -12 -63 0 -28 5 -56 12 -63 15 -15 51 -15 66 0 15 15 16 92 2 119 -12 21 -50 25 -68 7z"/>
 </g>

</svg>