<!DOCTYPE svg PUBLIC "-//W3C//DTD SVG 20010904//EN" "http://www.w3.org/TR/2001/REC-SVG-20010904/DTD/svg10.dtd">
<svg version="1.0" xmlns="http://www.w3.org/2000/svg" width="100px" height="100px" viewBox="0 0 1000 1000" preserveAspectRatio="xMidYMid meet">
<g id="layer1" fill="#3c5f81" stroke="none">
 <path d="M614 836 c-10 -26 1 -51 24 -54 22 -3 22 -6 22 -154 l0 -150 -32 20 c-18 11 -92 50 -165 87 -148 75 -143 75 -211 1 -34 -37 -42 -53 -42 -83 0 -35 12 -50 141 -185 152 -160 163 -166 224 -130 30 18 66 20 117 7 34 -9 66 32 49 64 -7 12 -11 111 -11 270 0 248 0 250 21 253 31 4 46 32 30 52 -18 22 -159 23 -167 2z m-253 -267 c19 -10 19 -11 -10 -44 -16 -19 -32 -43 -36 -55 -6 -20 -8 -21 -26 -4 -26 23 -24 47 7 83 28 34 36 36 65 20z m109 -56 c0 -3 -16 -23 -36 -45 -20 -22 -42 -54 -49 -71 -12 -30 -13 -30 -24 -9 -15 28 8 81 50 117 25 20 59 25 59 8z m113 -59 l34 -16 -38 -37 c-22 -20 -52 -60 -67 -89 l-29 -53 -27 32 c-21 24 -26 39 -21 57 12 48 73 121 102 122 7 0 28 -7 46 -16z m51 -116 c-19 -38 -51 -76 -76 -89 -29 -16 -2 44 45 97 44 50 59 46 31 -8z"/>
 </g>

</svg>