<!DOCTYPE svg PUBLIC "-//W3C//DTD SVG 20010904//EN" "http://www.w3.org/TR/2001/REC-SVG-20010904/DTD/svg10.dtd">
<svg version="1.0" xmlns="http://www.w3.org/2000/svg" width="100px" height="100px" viewBox="0 0 1000 1000" preserveAspectRatio="xMidYMid meet">
<g id="layer1" fill="#3c5f81" stroke="none">
 <path d="M490 835 c-19 -23 -8 -50 23 -53 24 -3 27 -8 27 -39 l0 -36 -23 34 c-19 29 -29 34 -67 37 -52 3 -123 -29 -152 -68 -18 -24 -17 -30 23 -225 46 -226 56 -245 129 -245 31 0 45 -7 71 -35 50 -52 99 -44 99 18 0 35 14 63 50 102 47 51 46 64 -10 162 l-50 89 0 102 c0 95 1 102 20 102 25 0 41 30 29 53 -13 23 -150 25 -169 2z m-16 -139 c15 -24 15 -25 -17 -31 -17 -4 -47 -16 -65 -26 -18 -10 -35 -19 -38 -19 -2 0 -4 16 -4 35 0 31 5 38 33 50 47 21 73 18 91 -9z m59 -100 c7 -18 -1 -26 -27 -26 -12 0 -45 -11 -74 -25 -65 -30 -64 -30 -60 -2 6 44 147 90 161 53z m7 -130 c0 -39 -3 -45 -31 -56 -17 -7 -46 -24 -65 -36 l-34 -23 -6 27 c-3 15 -7 32 -9 38 -6 20 26 56 69 75 65 30 76 26 76 -25z m77 -33 c-4 -3 -7 0 -7 7 0 7 3 10 7 7 3 -4 3 -10 0 -14z m10 -70 c-4 -3 -10 -3 -14 0 -3 4 0 7 7 7 7 0 10 -3 7 -7z m-87 -23 c0 -23 -40 -43 -79 -38 -22 3 -19 6 25 30 59 33 54 32 54 8z"/>
 </g>

</svg>