<!DOCTYPE svg PUBLIC "-//W3C//DTD SVG 20010904//EN" "http://www.w3.org/TR/2001/REC-SVG-20010904/DTD/svg10.dtd">
<svg version="1.0" xmlns="http://www.w3.org/2000/svg" width="100px" height="100px" viewBox="0 0 1000 1000" preserveAspectRatio="xMidYMid meet">
<g id="layer1" fill="#3c5f81" stroke="none">
 <path d="M610 835 c-17 -21 -2 -49 29 -53 20 -3 21 -8 21 -154 l0 -150 -62 35 c-35 19 -109 58 -165 87 l-103 52 -31 -19 c-39 -23 -87 -88 -95 -130 -6 -31 0 -39 142 -183 158 -160 166 -165 227 -133 41 21 66 24 94 11 15 -8 30 -8 45 -1 l22 10 -3 285 -3 286 24 4 c18 2 23 9 23 33 l0 30 -76 3 c-60 2 -79 -1 -89 -13z m-248 -266 c20 -11 20 -11 -5 -37 -13 -15 -33 -40 -43 -56 l-18 -28 -17 21 c-20 25 -15 51 17 86 26 28 36 30 66 14z m97 -48 c12 -8 7 -18 -26 -54 -22 -24 -44 -54 -48 -66 -12 -40 -41 -18 -31 25 6 24 72 104 85 104 3 0 12 -4 20 -9z m124 -67 l34 -16 -43 -40 c-24 -22 -54 -62 -67 -88 l-24 -49 -27 28 c-14 15 -26 35 -26 46 0 25 46 101 72 120 28 19 39 19 81 -1z m43 -128 c-25 -42 -74 -91 -83 -82 -9 8 30 72 65 109 45 46 53 33 18 -27z"/>
 </g>

</svg>