<!DOCTYPE svg PUBLIC "-//W3C//DTD SVG 20010904//EN" "http://www.w3.org/TR/2001/REC-SVG-20010904/DTD/svg10.dtd">
<svg version="1.0" xmlns="http://www.w3.org/2000/svg" width="100px" height="100px" viewBox="0 0 1000 1000" preserveAspectRatio="xMidYMid meet">
<g id="layer1" fill="#3c5f81" stroke="none">
 <path d="M661 836 c-20 -24 -9 -51 22 -54 l27 -3 0 -149 c0 -160 -8 -180 -41 -101 -30 72 -40 73 -239 40 -96 -15 -187 -29 -201 -29 -14 0 -36 -11 -50 -26 -21 -22 -24 -35 -24 -100 0 -112 2 -113 254 -153 l204 -32 28 27 c16 15 29 33 29 40 0 6 9 22 20 35 l19 24 1 -52 c0 -28 -5 -55 -10 -58 -16 -10 -12 -40 8 -58 22 -20 58 -22 68 -5 4 7 7 144 5 304 l-3 292 24 4 c18 2 23 9 23 33 l0 30 -76 3 c-58 2 -79 -1 -88 -12z m-115 -331 c-14 -57 -17 -113 -7 -155 5 -24 9 -46 7 -47 -1 -1 -19 0 -40 4 -31 5 -41 12 -52 39 -17 41 -18 111 -1 144 11 23 25 29 91 39 4 0 5 -10 2 -24z m-161 -90 c0 -75 -2 -85 -18 -85 -21 0 -37 37 -37 85 0 48 16 85 37 85 16 0 18 -10 18 -85z m239 63 c8 -30 6 -107 -4 -138 l-7 -25 -12 28 c-18 45 -12 157 9 157 4 0 10 -10 14 -22z m-348 -66 l1 -69 -26 5 c-32 6 -41 18 -41 57 0 55 10 75 39 75 25 0 26 -1 27 -68z"/>
 </g>

</svg>