<!DOCTYPE svg PUBLIC "-//W3C//DTD SVG 20010904//EN" "http://www.w3.org/TR/2001/REC-SVG-20010904/DTD/svg10.dtd">
<svg version="1.0" xmlns="http://www.w3.org/2000/svg" width="100px" height="100px" viewBox="0 0 1000 1000" preserveAspectRatio="xMidYMid meet">
<g id="layer1" fill="#3c5f81" stroke="none">
 <path d="M410 855 c-10 -12 -10 -21 -1 -41 10 -23 16 -25 62 -22 59 3 82 25 63 56 -15 24 -105 29 -124 7z"/>
 <path d="M422 754 c-27 -18 -28 -36 -4 -57 15 -14 40 -17 118 -17 65 0 104 4 112 12 18 18 14 56 -7 68 -32 17 -193 13 -219 -6z"/>
 <path d="M400 646 c-6 -8 -10 -25 -8 -38 l3 -23 185 0 185 0 3 23 c7 48 -8 52 -188 52 -134 0 -170 -3 -180 -14z"/>
 <path d="M270 530 c-8 -14 -8 -26 0 -40 11 -20 19 -20 302 -18 264 3 292 5 302 21 8 12 8 22 0 35 -10 15 -38 17 -302 20 -283 2 -291 2 -302 -18z"/>
 <path d="M152 428 c-16 -16 -15 -43 2 -57 9 -8 95 -11 291 -9 252 3 279 5 289 21 8 12 8 22 0 35 -10 15 -37 17 -290 20 -209 2 -283 -1 -292 -10z"/>
 <path d="M238 329 c-24 -13 -23 -56 1 -69 21 -11 567 -15 595 -4 30 11 40 43 20 65 -16 18 -34 19 -308 19 -179 0 -298 -5 -308 -11z"/>
 <path d="M112 218 c-16 -16 -15 -43 2 -57 9 -8 117 -11 376 -9 333 3 364 4 374 20 8 13 8 23 0 35 -10 17 -41 18 -375 21 -275 2 -368 -1 -377 -10z"/>
 </g>

</svg>