<!DOCTYPE svg PUBLIC "-//W3C//DTD SVG 20010904//EN" "http://www.w3.org/TR/2001/REC-SVG-20010904/DTD/svg10.dtd">
<svg version="1.0" xmlns="http://www.w3.org/2000/svg" width="100px" height="100px" viewBox="0 0 1000 1000" preserveAspectRatio="xMidYMid meet">
<g id="layer1" fill="#3c5f81" stroke="none">
 <path d="M447 882 c-25 -27 -21 -62 13 -116 36 -56 44 -53 80 25 22 47 23 53 9 77 -19 35 -76 43 -102 14z"/>
 <path d="M355 818 c-11 -7 -41 -10 -68 -9 -122 6 -216 -121 -173 -234 18 -47 72 -101 110 -111 21 -5 23 -11 22 -63 -1 -71 33 -130 94 -161 46 -24 119 -26 159 -6 42 22 89 81 97 121 7 38 15 43 34 20 9 -11 27 -15 59 -13 42 3 46 5 49 31 3 23 -2 30 -30 42 l-33 14 28 1 c61 0 134 47 163 102 18 35 18 121 0 156 -19 37 -65 78 -100 92 -16 6 -51 10 -77 9 -28 -2 -54 3 -64 11 -13 11 -19 10 -35 -5 -29 -26 -25 -46 15 -78 28 -22 39 -26 54 -17 76 40 168 -34 141 -115 -17 -52 -56 -78 -107 -72 -37 4 -44 1 -63 -25 -67 -91 -210 -91 -278 1 -19 26 -27 30 -52 24 -59 -11 -120 37 -120 97 0 29 27 77 49 90 26 13 77 13 103 -1 17 -9 25 -6 49 17 33 32 37 54 11 77 -13 12 -21 13 -37 5z m-9 -409 c12 -19 88 -49 127 -49 42 0 46 -10 15 -40 -24 -22 -86 -27 -119 -10 -22 12 -49 61 -49 90 0 22 15 27 26 9z"/>
 <path d="M114 419 c-29 -32 -8 -54 51 -54 34 0 51 5 58 17 16 25 -17 58 -58 58 -20 0 -39 -8 -51 -21z"/>
 <path d="M211 236 c-28 -29 -24 -60 8 -64 29 -5 73 35 69 63 -5 30 -48 31 -77 1z"/>
 <path d="M567 253 c-4 -3 -7 -16 -7 -28 0 -51 81 -76 88 -27 6 41 -55 82 -81 55z"/>
 <path d="M390 181 c-25 -48 -2 -105 41 -99 21 3 24 9 27 46 2 24 -2 50 -9 58 -16 20 -46 17 -59 -5z"/>
 </g>

</svg>