<!DOCTYPE svg PUBLIC "-//W3C//DTD SVG 20010904//EN" "http://www.w3.org/TR/2001/REC-SVG-20010904/DTD/svg10.dtd">
<svg version="1.0" xmlns="http://www.w3.org/2000/svg" width="100px" height="100px" viewBox="0 0 1000 1000" preserveAspectRatio="xMidYMid meet">
<g id="layer1" fill="#3c5f81" stroke="none">
 <path d="M382 954 c-15 -10 -22 -25 -22 -47 0 -34 37 -108 57 -114 14 -5 59 60 68 99 5 21 1 33 -19 52 -29 30 -52 33 -84 10z"/>
 <path d="M532 947 c-12 -13 -22 -34 -22 -47 0 -25 45 -110 59 -110 21 0 71 84 71 119 0 22 -44 61 -70 61 -9 0 -26 -10 -38 -23z"/>
 <path d="M232 903 c-33 -29 -35 -55 -8 -106 l25 -46 -45 -22 c-135 -65 -135 -259 -1 -319 40 -18 40 -18 41 -78 2 -49 7 -67 30 -97 41 -54 82 -75 144 -75 29 0 66 7 81 14 29 16 91 80 91 96 0 5 5 21 11 37 9 25 12 26 20 10 14 -24 107 -25 116 -1 9 24 -10 48 -43 55 -33 7 -20 14 40 23 77 11 146 93 146 174 0 74 -55 153 -116 168 l-23 6 24 46 c32 60 31 85 -1 111 -33 26 -45 26 -78 0 -32 -25 -33 -52 -2 -105 l24 -42 -30 -6 c-18 -4 -38 0 -52 10 -22 14 -25 13 -45 -12 -12 -15 -21 -30 -21 -34 0 -4 18 -19 40 -34 33 -22 43 -24 64 -15 14 7 40 9 60 5 77 -15 103 -110 46 -168 -25 -25 -37 -29 -72 -27 -38 2 -47 -2 -83 -38 -78 -78 -175 -78 -249 0 -35 37 -43 41 -82 38 -38 -2 -49 2 -75 29 -29 28 -31 35 -26 78 8 72 66 107 134 82 33 -11 37 -10 64 16 33 32 35 41 13 72 -15 21 -18 22 -39 8 -12 -8 -32 -12 -43 -9 l-21 5 19 39 c27 52 26 94 -2 113 -29 21 -51 20 -76 -1z m224 -601 c58 -5 64 -11 37 -37 -24 -25 -63 -37 -94 -30 -38 8 -79 59 -79 96 l0 29 41 -27 c27 -18 58 -28 95 -31z"/>
 <path d="M452 784 c-15 -10 -22 -25 -22 -47 0 -34 37 -108 57 -114 14 -5 59 60 68 99 5 21 1 33 -19 52 -29 30 -52 33 -84 10z"/>
 <path d="M110 355 c-24 -29 0 -50 56 -50 48 0 49 1 49 30 0 29 -2 30 -46 33 -33 2 -50 -2 -59 -13z"/>
 <path d="M211 176 c-28 -29 -25 -70 4 -74 26 -4 78 49 73 75 -5 28 -50 28 -77 -1z"/>
 <path d="M557 193 c-15 -14 -6 -40 22 -67 34 -32 65 -31 69 3 6 42 -64 92 -91 64z"/>
 <path d="M391 126 c-17 -21 -10 -87 12 -100 27 -17 51 5 55 48 4 41 -11 66 -38 66 -10 0 -23 -6 -29 -14z"/>
 </g>

</svg>