<!DOCTYPE svg PUBLIC "-//W3C//DTD SVG 20010904//EN" "http://www.w3.org/TR/2001/REC-SVG-20010904/DTD/svg10.dtd">
<svg version="1.0" xmlns="http://www.w3.org/2000/svg" width="100px" height="100px" viewBox="0 0 1000 1000" preserveAspectRatio="xMidYMid meet">
<g id="layer1" fill="#3c5f81" stroke="none">
 <path d="M396 852 c-3 -5 4 -39 16 -75 l22 -67 -24 -25 -24 -26 79 -79 c47 -47 83 -76 88 -71 6 6 0 37 -13 76 -22 67 -22 67 -3 87 20 20 20 20 46 -25 l25 -46 -24 9 c-30 12 -38 -2 -25 -43 15 -45 75 -91 100 -77 25 13 77 13 102 0 22 -13 49 -61 49 -90 0 -60 -61 -108 -120 -97 -25 6 -33 1 -55 -27 -69 -90 -208 -89 -275 2 -20 26 -27 29 -61 25 -48 -7 -85 15 -105 62 -14 33 -12 49 8 91 18 39 86 56 130 33 16 -9 24 -7 41 9 12 11 37 27 56 37 l33 17 -28 29 -28 29 -31 -19 c-20 -11 -43 -16 -63 -13 -74 10 -152 -31 -188 -99 -28 -56 -15 -150 29 -198 26 -28 93 -60 125 -61 13 0 42 -16 65 -35 90 -77 233 -73 320 9 15 14 39 26 52 26 64 0 148 68 166 134 32 117 -63 231 -188 225 -62 -3 -80 6 -60 29 24 28 47 79 47 106 0 27 -33 56 -63 56 -10 0 -29 -11 -42 -24 l-23 -23 -68 68 c-69 69 -78 76 -88 61z"/>
 <path d="M290 750 c-11 -11 -20 -30 -20 -42 0 -27 40 -100 57 -105 18 -6 63 68 63 104 0 55 -61 82 -100 43z"/>
 </g>

</svg>