<!DOCTYPE svg PUBLIC "-//W3C//DTD SVG 20010904//EN" "http://www.w3.org/TR/2001/REC-SVG-20010904/DTD/svg10.dtd">
<svg version="1.0" xmlns="http://www.w3.org/2000/svg" width="100px" height="100px" viewBox="0 0 1000 1000" preserveAspectRatio="xMidYMid meet">
<g id="layer1" fill="#3c5f81" stroke="none">
 <path d="M396 852 c-3 -5 5 -39 16 -75 20 -61 21 -69 6 -83 -14 -14 -15 -14 -11 8 3 16 -3 31 -21 47 -30 28 -68 23 -92 -14 -14 -22 -14 -27 4 -67 10 -24 27 -50 36 -58 16 -13 20 -11 39 14 l20 28 77 -77 c48 -48 80 -73 85 -66 3 6 -3 41 -15 77 l-22 65 21 23 c12 12 21 26 21 31 0 11 -141 155 -152 155 -4 0 -9 -4 -12 -8z"/>
 <path d="M591 744 c-11 -15 -21 -31 -21 -36 0 -22 52 -108 65 -108 8 0 27 25 42 55 l27 55 -20 27 c-29 39 -66 41 -93 7z"/>
 <path d="M157 702 c-23 -26 -21 -60 7 -109 l24 -41 -29 -28 c-58 -56 -65 -163 -14 -230 29 -38 93 -73 133 -74 13 0 41 -15 63 -33 91 -78 227 -76 324 5 17 14 47 28 69 31 82 13 156 97 156 177 0 43 -34 114 -67 140 l-25 19 21 34 c39 64 18 127 -42 127 -27 0 -57 -32 -57 -60 0 -8 8 -31 19 -50 l18 -35 -51 2 c-28 0 -71 10 -96 22 -25 11 -48 17 -53 12 -13 -13 17 -78 50 -105 26 -22 36 -25 52 -17 58 31 135 -3 147 -65 13 -72 -42 -132 -112 -121 -28 5 -36 1 -58 -27 -68 -90 -209 -89 -276 2 -20 26 -26 29 -65 24 -39 -4 -48 -1 -75 26 -24 24 -30 39 -30 72 0 74 77 124 140 90 14 -7 30 -1 74 27 l56 37 -27 28 c-25 26 -27 27 -57 11 -18 -9 -57 -17 -92 -17 l-61 -1 19 30 c10 17 18 42 18 56 0 52 -69 79 -103 41z"/>
 </g>

</svg>