<!DOCTYPE svg PUBLIC "-//W3C//DTD SVG 20010904//EN" "http://www.w3.org/TR/2001/REC-SVG-20010904/DTD/svg10.dtd">
<svg version="1.0" xmlns="http://www.w3.org/2000/svg" width="100px" height="100px" viewBox="0 0 1000 1000" preserveAspectRatio="xMidYMid meet">
<g id="layer1" fill="#3c5f81" stroke="none">
 <path d="M310 860 c-24 -24 -25 -48 -4 -78 32 -46 114 -17 114 40 0 26 -36 58 -65 58 -14 0 -34 -9 -45 -20z"/>
 <path d="M591 853 c-34 -43 -7 -93 50 -93 30 0 59 31 59 62 0 26 -36 58 -64 58 -15 0 -33 -11 -45 -27z"/>
 <path d="M451 714 c-25 -32 -26 -43 -5 -72 32 -46 114 -17 114 40 0 26 -36 58 -64 58 -15 0 -33 -11 -45 -26z"/>
 <path d="M217 672 c-22 -24 -21 -65 1 -85 40 -36 102 -9 102 45 0 51 -69 78 -103 40z"/>
 <path d="M687 672 c-22 -24 -21 -65 1 -85 40 -36 102 -9 102 45 0 51 -69 78 -103 40z"/>
 <path d="M392 575 c-36 -17 -72 -25 -106 -25 -40 0 -62 -7 -97 -29 -55 -35 -79 -81 -79 -153 0 -88 66 -162 153 -171 22 -2 48 -14 65 -29 49 -47 92 -62 167 -62 75 0 118 15 167 62 16 15 43 27 64 29 74 8 134 60 154 134 14 52 4 100 -30 147 -35 48 -84 72 -148 72 -32 0 -69 9 -104 25 -34 16 -71 25 -103 25 -32 0 -69 -9 -103 -25z m207 -89 c35 -25 43 -26 76 -17 105 29 178 -96 99 -170 -18 -17 -37 -24 -70 -24 -37 -1 -50 -7 -82 -37 -42 -42 -78 -58 -128 -58 -51 0 -98 23 -130 64 -25 31 -33 35 -64 30 -113 -17 -161 148 -55 192 29 12 43 12 76 3 35 -11 41 -10 62 9 54 51 149 54 216 8z"/>
 </g>

</svg>