<!DOCTYPE svg PUBLIC "-//W3C//DTD SVG 20010904//EN" "http://www.w3.org/TR/2001/REC-SVG-20010904/DTD/svg10.dtd">
<svg version="1.0" xmlns="http://www.w3.org/2000/svg" width="100px" height="100px" viewBox="0 0 1000 1000" preserveAspectRatio="xMidYMid meet">
<g id="layer1" fill="#3c5f81" stroke="none">
 <path d="M457 852 c-10 -10 -17 -32 -17 -49 0 -30 35 -93 56 -100 15 -5 52 54 60 95 11 57 -61 96 -99 54z"/>
 <path d="M415 668 c-16 -6 -39 -17 -50 -24 -11 -8 -44 -14 -73 -14 -107 0 -173 -59 -180 -161 -4 -49 0 -65 21 -101 27 -47 88 -88 131 -88 16 0 47 -16 76 -39 102 -81 232 -77 325 9 19 18 45 29 73 33 135 17 195 181 105 288 -36 42 -74 59 -135 59 -37 0 -68 8 -102 25 -54 27 -135 33 -191 13z m189 -102 c33 -25 40 -26 70 -16 45 15 81 4 111 -32 58 -69 8 -161 -90 -163 -35 0 -47 -5 -71 -34 -32 -39 -79 -61 -126 -61 -47 1 -111 33 -137 68 -18 26 -27 30 -64 29 -54 -2 -92 21 -107 67 -16 48 7 100 54 123 31 14 40 15 76 3 37 -12 42 -12 63 7 40 37 61 44 123 40 49 -2 69 -9 98 -31z"/>
 </g>

</svg>