<!DOCTYPE svg PUBLIC "-//W3C//DTD SVG 20010904//EN" "http://www.w3.org/TR/2001/REC-SVG-20010904/DTD/svg10.dtd">
<svg version="1.0" xmlns="http://www.w3.org/2000/svg" width="100px" height="100px" viewBox="0 0 1000 1000" preserveAspectRatio="xMidYMid meet">
<g id="layer1" fill="#3c5f81" stroke="none">
 <path d="M451 874 c-12 -15 -21 -31 -21 -36 0 -25 54 -108 71 -108 10 0 47 65 55 96 5 18 0 32 -17 50 -29 31 -62 31 -88 -2z"/>
 <path d="M264 765 c-19 -29 -8 -72 30 -120 l24 -29 31 49 c35 55 38 71 15 103 -22 32 -78 30 -100 -3z"/>
 <path d="M636 777 c-28 -20 -24 -69 8 -117 26 -39 29 -41 45 -26 10 9 26 35 37 57 16 37 16 44 3 68 -17 30 -63 40 -93 18z"/>
 <path d="M387 626 c-32 -15 -64 -23 -100 -23 -66 0 -109 -22 -148 -76 -28 -39 -30 -47 -27 -108 3 -49 9 -72 26 -95 31 -38 90 -74 125 -74 17 0 47 -15 77 -39 103 -82 251 -73 335 19 10 11 31 20 48 20 102 0 185 118 156 223 -21 79 -123 149 -193 131 -17 -4 -42 2 -78 20 -70 35 -155 36 -221 2z m163 -61 c14 -4 40 -18 58 -32 30 -22 36 -24 62 -13 84 35 168 -58 126 -138 -21 -40 -49 -55 -101 -54 -36 1 -45 -3 -64 -29 -26 -35 -92 -69 -136 -69 -44 0 -109 33 -134 68 -19 27 -28 31 -65 30 -56 -1 -84 16 -102 59 -35 82 45 167 125 133 26 -10 34 -9 70 15 42 28 94 45 121 40 8 -2 26 -7 40 -10z"/>
 </g>

</svg>