<!DOCTYPE svg PUBLIC "-//W3C//DTD SVG 20010904//EN" "http://www.w3.org/TR/2001/REC-SVG-20010904/DTD/svg10.dtd">
<svg version="1.0" xmlns="http://www.w3.org/2000/svg" width="100px" height="100px" viewBox="0 0 1000 1000" preserveAspectRatio="xMidYMid meet">
<g id="layer1" fill="#3c5f81" stroke="none">
 <path d="M452 877 c-12 -13 -22 -29 -22 -35 0 -20 49 -112 59 -112 13 0 46 43 61 80 11 28 11 34 -7 58 -26 36 -63 39 -91 9z"/>
 <path d="M307 772 c-21 -23 -21 -44 -1 -85 22 -42 45 -68 55 -61 16 10 49 82 49 107 0 50 -70 76 -103 39z"/>
 <path d="M596 777 c-28 -20 -24 -69 8 -117 26 -39 29 -41 45 -26 10 9 26 35 37 57 16 37 16 44 3 68 -17 30 -63 40 -93 18z"/>
 <path d="M172 754 c-13 -9 -22 -26 -22 -41 0 -33 47 -115 63 -110 18 6 57 79 57 108 0 50 -54 74 -98 43z"/>
 <path d="M737 752 c-10 -10 -17 -31 -17 -45 0 -29 44 -107 60 -107 14 0 60 83 60 108 0 51 -70 80 -103 44z"/>
 <path d="M387 626 c-32 -16 -64 -23 -100 -23 -108 0 -180 -72 -180 -179 0 -89 61 -160 146 -172 28 -3 55 -17 82 -39 94 -80 232 -78 327 6 23 20 46 31 65 31 42 0 116 51 136 93 21 43 22 128 3 165 -32 62 -89 95 -163 95 -36 0 -68 7 -100 23 -34 18 -63 24 -108 24 -45 0 -74 -6 -108 -24z m215 -91 c35 -23 43 -25 68 -15 55 23 120 -13 136 -75 7 -30 -19 -91 -47 -105 -12 -7 -41 -12 -64 -12 -36 1 -45 -3 -64 -29 -26 -35 -92 -69 -136 -69 -44 0 -110 34 -136 69 -19 26 -28 30 -64 29 -52 -1 -80 14 -101 54 -42 81 42 173 126 138 26 -11 33 -10 48 2 70 61 154 66 234 13z"/>
 </g>

</svg>