<!DOCTYPE svg PUBLIC "-//W3C//DTD SVG 20010904//EN" "http://www.w3.org/TR/2001/REC-SVG-20010904/DTD/svg10.dtd">
<svg version="1.0" xmlns="http://www.w3.org/2000/svg" width="100px" height="100px" viewBox="0 0 1000 1000" preserveAspectRatio="xMidYMid meet">
<g id="layer1" fill="#778ea7" stroke="none">
 <path d="M482 868 c-17 -17 -16 -132 2 -147 24 -20 37 11 34 85 -3 67 -13 85 -36 62z"/>
 <path d="M371 836 c-7 -9 -11 -39 -9 -78 3 -55 5 -63 23 -63 18 0 20 7 20 74 0 75 -10 96 -34 67z"/>
 <path d="M591 836 c-7 -9 -11 -39 -9 -78 3 -55 5 -63 23 -63 18 0 20 7 20 74 0 75 -10 96 -34 67z"/>
 <path d="M262 808 c-18 -18 -15 -123 3 -138 12 -10 18 -10 30 0 29 24 16 150 -15 150 -3 0 -11 -5 -18 -12z"/>
 <path d="M694 807 c-3 -8 -4 -43 -2 -78 3 -56 5 -64 23 -64 18 0 20 7 20 75 0 63 -3 75 -18 78 -9 2 -20 -3 -23 -11z"/>
 <path d="M152 768 c-19 -19 -15 -133 4 -149 24 -20 44 14 44 76 0 58 -25 96 -48 73z"/>
 <path d="M812 768 c-15 -15 -16 -144 -2 -153 24 -15 40 17 40 80 0 66 -15 96 -38 73z"/>
 <path d="M443 651 c-17 -5 -48 -18 -67 -29 -25 -15 -45 -20 -66 -16 -68 14 -150 -29 -186 -97 -18 -36 -18 -112 0 -147 31 -59 96 -102 155 -102 17 0 37 -10 52 -26 77 -84 233 -84 322 0 15 14 39 26 53 26 65 0 144 66 163 134 30 112 -83 235 -195 213 -16 -3 -44 4 -73 18 -53 27 -112 37 -158 26z m122 -80 c22 -10 46 -25 54 -34 10 -12 18 -14 31 -7 47 25 123 3 146 -41 41 -80 -10 -159 -102 -159 -29 0 -44 -8 -74 -38 -76 -79 -201 -75 -268 9 -19 23 -32 29 -62 29 -55 0 -86 17 -105 57 -23 47 -13 95 26 127 32 27 85 34 119 16 13 -7 21 -5 31 7 21 24 89 53 129 53 19 0 53 -9 75 -19z"/>
 </g>

</svg>