<!DOCTYPE svg PUBLIC "-//W3C//DTD SVG 20010904//EN" "http://www.w3.org/TR/2001/REC-SVG-20010904/DTD/svg10.dtd">
<svg version="1.0" xmlns="http://www.w3.org/2000/svg" width="100px" height="100px" viewBox="0 0 1000 1000" preserveAspectRatio="xMidYMid meet">
<g id="layer1" fill="#3c5f81" stroke="none">
 <path d="M480 815 c-10 -12 -9 -20 4 -40 9 -14 19 -25 21 -25 2 0 12 11 21 25 13 20 14 28 4 40 -7 8 -18 15 -25 15 -7 0 -18 -7 -25 -15z"/>
 <path d="M380 795 c-10 -12 -9 -20 4 -40 9 -14 19 -25 21 -25 2 0 12 11 21 25 13 20 14 28 4 40 -7 8 -18 15 -25 15 -7 0 -18 -7 -25 -15z"/>
 <path d="M592 798 c-17 -17 -15 -43 4 -59 14 -11 18 -10 30 6 8 10 14 24 14 30 0 12 -20 35 -30 35 -3 0 -11 -5 -18 -12z"/>
 <path d="M280 775 c-10 -12 -9 -20 4 -40 9 -14 19 -25 21 -25 2 0 12 11 21 25 13 20 14 28 4 40 -7 8 -18 15 -25 15 -7 0 -18 -7 -25 -15z"/>
 <path d="M690 775 c-10 -12 -10 -21 -2 -40 7 -14 16 -25 22 -25 6 0 15 11 22 25 8 19 8 28 -2 40 -7 8 -16 15 -20 15 -4 0 -13 -7 -20 -15z"/>
 <path d="M416 706 c-21 -8 -43 -19 -49 -25 -6 -6 -37 -11 -70 -11 -64 0 -87 -9 -130 -49 -41 -38 -57 -73 -57 -129 0 -88 70 -166 158 -175 16 -2 44 -16 62 -31 100 -84 228 -87 321 -8 26 22 54 37 77 39 109 11 186 126 152 228 -26 80 -90 125 -177 125 -28 0 -65 9 -92 22 -56 27 -142 33 -195 14z m163 -85 c20 -11 43 -27 50 -35 9 -10 18 -13 25 -8 37 30 109 14 140 -29 49 -70 -20 -172 -104 -154 -24 5 -32 1 -51 -24 -28 -39 -94 -71 -143 -71 -48 0 -108 31 -136 70 -19 27 -26 30 -55 24 -37 -7 -89 15 -105 45 -5 11 -10 37 -10 59 0 71 70 115 137 87 28 -12 33 -11 48 5 45 50 138 64 204 31z"/>
 </g>

</svg>