<!DOCTYPE svg PUBLIC "-//W3C//DTD SVG 20010904//EN" "http://www.w3.org/TR/2001/REC-SVG-20010904/DTD/svg10.dtd">
<svg version="1.0" xmlns="http://www.w3.org/2000/svg" width="100px" height="100px" viewBox="0 0 1000 1000" preserveAspectRatio="xMidYMid meet">
<g id="layer1" fill="#3c5f81" stroke="none">
 <path d="M451 876 c-22 -24 -23 -29 -13 -63 7 -21 21 -49 31 -63 17 -21 21 -22 37 -10 9 8 26 35 37 59 19 43 19 44 0 70 -27 36 -63 38 -92 7z"/>
 <path d="M264 866 c-27 -22 -27 -25 -16 -62 7 -22 21 -50 31 -64 19 -24 20 -24 40 -6 21 19 21 19 21 -4 0 -12 10 -40 22 -61 21 -39 21 -39 2 -54 -12 -10 -31 -14 -54 -10 -85 12 -177 -50 -200 -134 -27 -101 40 -205 142 -218 29 -4 56 -17 83 -40 56 -48 132 -68 202 -54 52 10 143 62 143 81 0 6 16 10 35 10 43 0 81 18 116 57 39 41 49 66 49 120 0 62 -26 110 -78 147 -34 24 -50 29 -99 28 -33 0 -68 6 -80 14 l-22 14 24 42 c14 24 25 52 25 62 0 19 0 19 14 1 12 -17 16 -17 31 -5 47 39 59 119 23 144 -31 22 -51 20 -76 -7 -25 -26 -27 -48 -11 -80 9 -18 9 -20 -2 -9 -19 18 -63 15 -82 -6 -21 -23 -22 -54 -2 -92 l15 -28 -69 -4 -70 -3 20 31 c10 17 19 43 19 56 0 51 -63 76 -103 41 -19 -18 -20 -18 -3 14 21 42 20 49 -9 78 -30 31 -47 31 -81 1z m328 -326 c42 -26 51 -27 83 -17 77 23 150 -52 125 -129 -15 -45 -49 -67 -105 -66 -38 1 -47 -3 -66 -30 -25 -35 -90 -68 -134 -68 -44 0 -110 34 -136 69 -19 26 -28 30 -64 29 -50 -3 -91 21 -106 60 -31 81 52 165 131 132 26 -11 32 -9 62 13 68 52 132 54 210 7z"/>
 <path d="M167 752 c-10 -10 -17 -29 -17 -43 0 -32 42 -104 60 -104 19 0 60 73 60 107 0 50 -70 77 -103 40z"/>
 <path d="M737 752 c-10 -10 -17 -32 -17 -48 0 -29 43 -104 60 -104 13 0 49 63 56 98 11 57 -61 96 -99 54z"/>
 </g>

</svg>