<!DOCTYPE svg PUBLIC "-//W3C//DTD SVG 20010904//EN" "http://www.w3.org/TR/2001/REC-SVG-20010904/DTD/svg10.dtd">
<svg version="1.0" xmlns="http://www.w3.org/2000/svg" width="100px" height="100px" viewBox="0 0 1000 1000" preserveAspectRatio="xMidYMid meet">
<g id="layer1" fill="#3c5f81" stroke="none">
 <path d="M447 872 c-21 -23 -21 -44 -1 -85 22 -42 45 -68 55 -61 16 10 49 82 49 107 0 50 -70 76 -103 39z"/>
 <path d="M367 842 c-25 -27 -24 -133 1 -156 18 -15 20 -15 35 2 25 27 24 133 -1 156 -18 15 -20 15 -35 -2z"/>
 <path d="M582 848 c-7 -7 -12 -40 -12 -78 0 -52 4 -71 18 -83 29 -27 42 -3 42 78 0 64 -10 95 -30 95 -3 0 -11 -5 -18 -12z"/>
 <path d="M226 798 c-21 -29 -20 -41 3 -87 33 -64 46 -68 74 -24 36 57 41 80 23 108 -22 33 -78 35 -100 3z"/>
 <path d="M667 792 c-10 -10 -17 -29 -17 -41 0 -25 47 -111 61 -111 14 0 59 85 59 112 0 51 -69 78 -103 40z"/>
 <path d="M142 768 c-19 -19 -16 -143 4 -159 30 -25 49 1 52 75 4 84 -20 120 -56 84z"/>
 <path d="M802 768 c-18 -18 -16 -142 3 -158 29 -24 45 5 45 79 0 60 -10 91 -30 91 -3 0 -11 -5 -18 -12z"/>
 <path d="M430 651 c-14 -5 -41 -16 -60 -26 -22 -12 -52 -17 -82 -16 -113 6 -200 -92 -183 -207 6 -38 16 -56 54 -93 38 -38 55 -48 94 -54 31 -5 59 -17 75 -33 69 -65 178 -80 267 -38 28 13 59 33 69 45 11 11 31 21 45 21 14 0 45 9 67 19 109 50 138 192 58 281 -42 46 -90 64 -150 57 -30 -3 -47 0 -55 9 -26 32 -143 52 -199 35z m135 -90 c22 -10 46 -25 54 -34 10 -12 18 -14 31 -7 25 13 73 13 103 -1 51 -23 63 -109 23 -156 -20 -23 -32 -28 -74 -29 -44 0 -54 -4 -77 -33 -37 -43 -75 -61 -130 -61 -59 0 -109 23 -141 66 -22 28 -30 32 -58 27 -70 -11 -125 49 -112 121 12 62 89 96 148 65 16 -9 25 -6 47 15 51 48 118 58 186 27z"/>
 </g>

</svg>