<!DOCTYPE svg PUBLIC "-//W3C//DTD SVG 20010904//EN" "http://www.w3.org/TR/2001/REC-SVG-20010904/DTD/svg10.dtd">
<svg version="1.0" xmlns="http://www.w3.org/2000/svg" width="100px" height="100px" viewBox="0 0 1000 1000" preserveAspectRatio="xMidYMid meet">
<g id="layer1" fill="#3c5f81" stroke="none">
 <path d="M476 871 c-23 -26 -19 -139 6 -154 31 -20 48 8 48 82 0 85 -19 111 -54 72z"/>
 <path d="M366 841 c-23 -26 -19 -139 6 -154 31 -20 48 8 48 82 0 85 -19 111 -54 72z"/>
 <path d="M586 841 c-23 -26 -19 -139 6 -154 31 -20 48 8 48 82 0 85 -19 111 -54 72z"/>
 <path d="M262 818 c-18 -18 -16 -142 3 -158 29 -24 45 5 45 79 0 60 -10 91 -30 91 -3 0 -11 -5 -18 -12z"/>
 <path d="M692 818 c-19 -19 -16 -143 4 -159 30 -25 49 1 52 75 4 84 -20 120 -56 84z"/>
 <path d="M147 773 c-4 -3 -7 -39 -7 -78 0 -80 16 -109 45 -85 19 16 21 140 3 158 -13 13 -31 16 -41 5z"/>
 <path d="M802 768 c-18 -18 -16 -142 3 -158 13 -10 19 -10 35 5 16 14 20 31 20 80 0 58 -11 85 -35 85 -6 0 -16 -5 -23 -12z"/>
 <path d="M384 635 c-34 -17 -65 -25 -102 -25 -59 0 -94 -15 -134 -57 -65 -68 -65 -168 0 -236 36 -38 74 -57 115 -57 23 0 41 -8 58 -26 84 -90 240 -94 333 -9 26 23 48 35 68 35 36 0 75 20 110 57 65 68 65 168 0 236 -40 42 -75 57 -134 57 -37 0 -68 8 -102 25 -35 18 -65 25 -106 25 -41 0 -71 -7 -106 -25z m211 -89 c34 -26 40 -28 75 -17 71 21 130 -21 130 -94 0 -20 -7 -47 -16 -60 -19 -28 -72 -48 -107 -40 -20 5 -29 0 -47 -25 -27 -38 -90 -69 -139 -70 -46 0 -112 33 -140 71 -19 25 -27 29 -51 24 -91 -20 -155 91 -95 163 31 37 66 46 112 31 28 -9 37 -8 51 4 62 57 162 62 227 13z"/>
 </g>

</svg>