<!DOCTYPE svg PUBLIC "-//W3C//DTD SVG 20010904//EN" "http://www.w3.org/TR/2001/REC-SVG-20010904/DTD/svg10.dtd">
<svg version="1.0" xmlns="http://www.w3.org/2000/svg" width="100px" height="100px" viewBox="0 0 1000 1000" preserveAspectRatio="xMidYMid meet">
<g id="layer1" fill="#3c5f81" stroke="none">
 <path d="M461 846 l-33 -48 29 -36 c16 -20 34 -37 40 -39 12 -4 63 63 63 82 0 5 -15 28 -33 49 l-34 39 -32 -47z"/>
 <path d="M312 756 l-32 -44 30 -41 c17 -22 34 -41 39 -41 11 0 61 65 61 80 0 14 -50 90 -60 90 -3 0 -21 -20 -38 -44z"/>
 <path d="M617 768 c-13 -18 -27 -38 -31 -45 -8 -15 41 -93 59 -93 7 0 24 18 39 41 l27 40 -21 33 c-35 58 -45 61 -73 24z"/>
 <path d="M165 683 c-14 -21 -25 -41 -25 -46 0 -11 52 -87 60 -87 3 0 21 20 38 44 l32 44 -30 41 c-17 22 -34 41 -40 41 -5 0 -21 -17 -35 -37z"/>
 <path d="M755 683 c-14 -21 -25 -42 -25 -48 0 -5 15 -28 33 -49 l34 -39 32 47 32 46 -31 40 c-18 22 -36 40 -40 40 -5 0 -21 -17 -35 -37z"/>
 <path d="M386 566 c-34 -17 -58 -23 -85 -19 -88 12 -180 -65 -189 -157 -6 -65 2 -93 40 -136 36 -41 82 -64 126 -64 18 0 37 -10 53 -26 38 -41 96 -64 167 -64 72 0 114 15 164 59 21 18 47 31 62 31 69 0 147 73 161 152 20 108 -98 226 -202 204 -22 -5 -41 0 -74 18 -61 35 -156 36 -223 2z m156 -56 c21 -6 51 -22 67 -36 28 -23 34 -24 64 -13 106 38 182 -86 102 -167 -18 -18 -35 -24 -70 -24 -40 0 -50 -5 -83 -39 -77 -80 -209 -73 -266 14 -13 20 -25 25 -56 25 -73 0 -113 35 -113 100 0 66 73 116 135 92 27 -10 34 -8 62 12 56 42 99 52 158 36z"/>
 </g>

</svg>