<!DOCTYPE svg PUBLIC "-//W3C//DTD SVG 20010904//EN" "http://www.w3.org/TR/2001/REC-SVG-20010904/DTD/svg10.dtd">
<svg version="1.0" xmlns="http://www.w3.org/2000/svg" width="100px" height="100px" viewBox="0 0 1000 1000" preserveAspectRatio="xMidYMid meet">
<g id="layer1" fill="#3c5f81" stroke="none">
 <path d="M439 819 c-5 -10 -6 -19 -2 -19 4 0 -3 -7 -16 -16 l-22 -16 22 -24 c12 -13 19 -24 15 -24 -4 0 -2 -9 4 -20 9 -16 15 -18 30 -10 13 7 26 7 38 1 19 -10 42 2 42 23 0 5 7 18 17 28 15 16 15 20 1 36 -9 9 -18 26 -20 37 -5 29 -94 32 -109 4z"/>
 <path d="M384 615 c-36 -18 -58 -23 -82 -19 -81 15 -185 -64 -198 -151 -14 -95 56 -190 147 -202 29 -4 56 -16 78 -36 50 -43 98 -60 166 -60 67 0 124 23 164 67 15 16 35 26 52 26 59 0 124 43 155 102 20 38 18 117 -5 158 -10 19 -37 48 -59 64 -34 24 -53 30 -104 32 -42 1 -76 8 -103 23 -57 30 -146 29 -211 -4z m148 -55 c21 -6 51 -22 67 -36 27 -23 32 -24 74 -12 39 10 48 9 78 -8 59 -35 70 -111 22 -159 -21 -20 -36 -25 -74 -25 -41 0 -51 -4 -65 -25 -22 -34 -72 -63 -121 -71 -52 -8 -122 21 -154 65 -20 27 -29 31 -70 31 -58 0 -96 27 -105 76 -16 86 62 148 141 112 22 -10 28 -8 49 11 22 21 86 50 111 51 6 0 27 -5 47 -10z"/>
 </g>

</svg>