<!DOCTYPE svg PUBLIC "-//W3C//DTD SVG 20010904//EN" "http://www.w3.org/TR/2001/REC-SVG-20010904/DTD/svg10.dtd">
<svg version="1.0" xmlns="http://www.w3.org/2000/svg" width="100px" height="100px" viewBox="0 0 1000 1000" preserveAspectRatio="xMidYMid meet">
<g id="layer1" fill="#3c5f81" stroke="none">
 <path d="M426 827 l-28 -41 21 -17 c11 -9 17 -19 14 -23 -16 -15 21 -34 65 -32 40 1 47 4 47 21 0 11 9 27 20 37 19 15 19 17 2 35 -9 11 -17 24 -17 29 0 21 -23 33 -42 23 -12 -6 -24 -6 -37 0 -15 8 -22 3 -45 -32z"/>
 <path d="M259 744 c-6 -8 -9 -17 -6 -20 3 -4 -4 -14 -16 -24 -21 -17 -21 -19 -4 -37 9 -11 17 -24 17 -30 0 -6 7 -16 15 -23 12 -10 18 -10 30 0 12 10 18 10 30 0 12 -10 18 -10 30 0 8 7 15 17 15 23 0 6 7 19 16 29 14 15 15 20 3 34 -7 9 -18 26 -24 38 -13 26 -87 33 -106 10z"/>
 <path d="M619 739 c-5 -10 -7 -19 -3 -19 3 0 -4 -9 -17 -20 -24 -20 -24 -20 -4 -38 11 -10 21 -24 23 -32 6 -26 20 -34 37 -20 12 10 18 10 30 0 12 -10 18 -10 30 0 8 7 15 17 15 23 0 6 7 19 17 29 15 16 15 20 1 36 -9 9 -18 26 -20 37 -5 29 -94 32 -109 4z"/>
 <path d="M406 606 c-21 -8 -43 -19 -49 -25 -6 -6 -38 -11 -71 -11 -70 0 -109 -19 -150 -73 -82 -107 -10 -266 126 -280 23 -2 51 -17 77 -39 51 -43 115 -63 181 -55 58 7 94 24 139 66 18 17 36 30 39 29 4 -1 25 1 47 5 45 7 106 62 124 110 24 62 9 131 -37 180 -40 43 -75 57 -136 57 -38 0 -66 7 -91 21 -46 27 -145 35 -199 15z m191 -102 c35 -28 40 -30 68 -18 46 20 105 -1 124 -43 14 -31 14 -78 0 -105 -14 -27 -74 -51 -109 -43 -23 5 -31 1 -50 -25 -64 -89 -209 -91 -276 -3 -21 28 -31 33 -51 28 -38 -9 -91 13 -108 45 -32 61 -11 120 51 146 29 12 39 12 68 0 31 -13 36 -13 47 0 51 61 171 70 236 18z"/>
 </g>

</svg>