<!DOCTYPE svg PUBLIC "-//W3C//DTD SVG 20010904//EN" "http://www.w3.org/TR/2001/REC-SVG-20010904/DTD/svg10.dtd">
<svg version="1.0" xmlns="http://www.w3.org/2000/svg" width="100px" height="100px" viewBox="0 0 1000 1000" preserveAspectRatio="xMidYMid meet">
<g id="layer1" fill="#3c5f81" stroke="none">
 <path d="M439 853 c-7 -7 -9 -16 -6 -19 3 -4 -4 -14 -16 -24 -21 -17 -21 -19 -4 -37 9 -11 17 -24 17 -29 0 -21 23 -33 42 -23 12 6 24 6 37 0 15 -8 22 -3 45 32 l28 41 -21 17 c-11 9 -17 19 -14 23 3 3 1 12 -6 19 -15 18 -87 18 -102 0z"/>
 <path d="M299 738 c-20 -28 -20 -29 -1 -54 12 -18 30 -28 50 -29 28 -2 34 2 48 30 14 31 14 36 -1 59 -23 35 -69 33 -96 -6z"/>
 <path d="M585 744 c-15 -23 -15 -28 -1 -59 14 -28 20 -32 48 -30 20 1 38 11 50 29 19 25 19 26 -1 54 -27 39 -73 41 -96 6z"/>
 <path d="M157 733 c-4 -3 -7 -13 -7 -21 0 -9 -7 -24 -17 -34 -15 -17 -15 -19 0 -36 10 -10 17 -26 17 -36 0 -21 28 -32 42 -18 8 8 15 8 25 1 17 -15 43 -4 43 18 0 10 9 24 21 31 l21 13 -21 23 c-12 12 -21 30 -21 39 0 22 -16 30 -39 17 -13 -7 -22 -7 -26 0 -7 11 -28 13 -38 3z"/>
 <path d="M727 733 c-4 -3 -7 -13 -7 -22 0 -8 -9 -25 -21 -37 l-21 -23 21 -13 c12 -7 21 -21 21 -31 0 -22 27 -34 42 -19 8 8 15 8 25 1 17 -15 43 -4 43 17 0 10 7 26 17 36 15 17 15 19 0 36 -10 10 -17 26 -17 36 0 21 -26 32 -43 18 -8 -7 -18 -7 -27 -2 -18 12 -25 12 -33 3z"/>
 <path d="M380 584 c-33 -15 -63 -23 -78 -19 -37 9 -104 -14 -141 -48 -77 -73 -82 -177 -13 -250 36 -38 74 -57 115 -57 23 0 41 -8 58 -26 42 -46 97 -68 169 -68 71 0 114 17 165 64 19 18 45 29 73 33 51 6 82 25 117 71 52 68 46 154 -16 221 -42 46 -107 71 -154 59 -16 -4 -42 3 -77 20 -70 35 -143 35 -218 0z m185 -67 c11 -5 30 -18 41 -29 20 -17 26 -18 62 -7 72 21 132 -24 132 -98 0 -56 -67 -110 -120 -96 -17 5 -30 -3 -56 -31 -38 -42 -88 -66 -136 -66 -43 0 -110 34 -136 69 -18 25 -28 29 -68 28 -41 0 -51 4 -76 32 -73 81 3 195 107 161 32 -11 38 -9 66 14 17 14 43 29 57 32 15 3 32 7 37 9 14 4 67 -6 90 -18z"/>
 </g>

</svg>