<!DOCTYPE svg PUBLIC "-//W3C//DTD SVG 20010904//EN" "http://www.w3.org/TR/2001/REC-SVG-20010904/DTD/svg10.dtd">
<svg version="1.0" xmlns="http://www.w3.org/2000/svg" width="100px" height="100px" viewBox="0 0 1000 1000" preserveAspectRatio="xMidYMid meet">
<g id="layer1" fill="#3c5f81" stroke="none">
 <path d="M444 895 c-3 -8 -4 -20 -2 -27 3 -7 -5 -18 -16 -23 -27 -13 -27 -36 -1 -50 12 -6 19 -17 17 -29 -6 -29 15 -43 35 -24 14 15 18 15 38 2 19 -13 24 -13 35 0 6 9 10 21 8 28 -3 7 5 18 16 23 27 14 27 36 0 50 -11 5 -19 16 -16 23 2 7 -2 19 -8 28 -11 13 -15 13 -35 0 -20 -13 -25 -13 -35 -1 -16 19 -29 19 -36 0z"/>
 <path d="M261 801 c-17 -25 -17 -27 0 -55 23 -38 77 -43 90 -9 4 11 13 24 18 28 7 4 3 16 -10 35 -28 37 -72 38 -98 1z"/>
 <path d="M655 798 c-14 -28 -13 -33 6 -59 11 -16 24 -27 29 -24 5 3 10 -5 12 -17 2 -15 -4 -27 -17 -33 -11 -6 -20 -17 -20 -25 0 -8 9 -19 20 -25 27 -14 21 -53 -8 -57 -12 -2 -39 6 -59 17 -40 21 -52 41 -19 30 14 -4 25 2 40 23 19 27 20 32 6 60 -13 25 -22 30 -50 30 -47 0 -73 -38 -54 -77 7 -14 14 -28 15 -31 2 -3 -24 -6 -55 -5 -59 0 -66 7 -39 41 4 6 1 24 -7 42 -13 25 -21 30 -50 30 -28 0 -37 -5 -49 -29 -13 -26 -13 -33 1 -60 11 -22 21 -29 34 -26 11 3 22 1 25 -4 3 -5 0 -9 -6 -9 -7 0 -24 -8 -38 -19 -37 -25 -102 -18 -102 11 0 11 10 28 23 39 l22 19 -22 19 c-13 11 -23 28 -23 40 0 28 -16 35 -37 14 -17 -17 -19 -17 -37 1 -18 18 -20 18 -32 1 -7 -10 -11 -22 -8 -27 3 -5 -5 -17 -18 -28 l-23 -20 23 -20 c13 -11 21 -23 18 -28 -3 -5 1 -18 8 -28 14 -18 15 -18 34 -1 17 16 21 16 32 2 10 -12 10 -15 -4 -15 -26 0 -94 -68 -107 -107 -18 -54 -7 -126 26 -169 30 -39 93 -73 136 -74 14 0 34 -10 45 -21 10 -12 42 -32 69 -45 90 -42 192 -27 271 39 18 15 42 27 53 27 63 0 154 79 167 144 15 81 -23 155 -99 197 -26 14 -44 28 -41 32 3 3 17 -1 31 -10 27 -18 47 -7 41 23 -2 12 5 23 17 29 26 14 26 37 -1 50 -11 5 -19 16 -16 23 2 7 1 20 -2 28 -6 15 -9 14 -32 -1 -34 -22 -47 -8 -28 32 14 28 14 34 -1 56 -25 38 -79 35 -100 -5z m-98 -279 c15 -5 40 -22 54 -36 22 -20 31 -23 47 -14 59 31 136 -3 148 -65 13 -72 -42 -132 -112 -121 -28 5 -36 1 -58 -27 -32 -43 -82 -66 -141 -66 -55 0 -93 18 -130 61 -23 29 -33 33 -77 33 -42 1 -54 6 -74 29 -56 65 -11 167 73 167 22 0 44 -5 51 -12 9 -9 17 -7 34 10 50 46 127 63 185 41z"/>
 </g>

</svg>