<!DOCTYPE svg PUBLIC "-//W3C//DTD SVG 20010904//EN" "http://www.w3.org/TR/2001/REC-SVG-20010904/DTD/svg10.dtd">
<svg version="1.0" xmlns="http://www.w3.org/2000/svg" width="100px" height="100px" viewBox="0 0 1000 1000" preserveAspectRatio="xMidYMid meet">
<g id="layer1" fill="#3c5f81" stroke="none">
 <path d="M462 864 c-30 -21 -29 -69 3 -117 14 -20 30 -37 35 -37 14 0 60 84 60 108 0 27 -33 62 -58 62 -10 0 -28 -7 -40 -16z"/>
 <path d="M306 759 c-13 -25 -13 -33 0 -58 12 -24 21 -29 49 -29 28 0 37 5 49 29 13 25 13 33 0 58 -12 24 -21 29 -49 29 -28 0 -37 -5 -49 -29z"/>
 <path d="M590 757 c-20 -26 -21 -32 -8 -41 8 -6 17 -18 20 -27 8 -21 69 -20 76 1 3 8 12 20 20 26 14 10 13 15 -7 40 -32 40 -72 41 -101 1z"/>
 <path d="M172 727 c-27 -29 -27 -38 -3 -86 30 -58 45 -67 69 -37 10 14 25 39 32 56 11 28 11 34 -7 58 -26 36 -63 39 -91 9z"/>
 <path d="M740 730 c-11 -11 -20 -30 -20 -42 0 -24 46 -108 60 -108 18 0 60 75 60 106 0 57 -60 84 -100 44z"/>
 <path d="M395 579 c-26 -14 -62 -22 -103 -24 -48 -2 -72 -9 -102 -29 -92 -61 -107 -190 -32 -269 36 -38 74 -57 115 -57 23 0 41 -8 58 -26 81 -87 236 -91 328 -9 25 22 50 34 80 38 92 12 161 107 146 203 -13 86 -122 168 -199 148 -17 -4 -42 2 -78 20 -68 34 -155 36 -213 5z m180 -72 c11 -5 30 -19 42 -30 20 -18 26 -18 53 -7 44 18 105 -1 125 -40 24 -46 19 -87 -14 -121 -25 -24 -38 -29 -78 -29 -43 0 -52 -4 -72 -31 -26 -35 -92 -68 -135 -69 -42 0 -112 36 -137 71 -15 22 -29 30 -48 29 -53 -4 -69 1 -95 26 -20 20 -26 37 -26 68 0 77 57 119 131 97 37 -11 42 -10 70 13 17 15 43 29 57 32 15 3 32 7 37 9 14 4 67 -6 90 -18z"/>
 </g>

</svg>