<!DOCTYPE svg PUBLIC "-//W3C//DTD SVG 20010904//EN" "http://www.w3.org/TR/2001/REC-SVG-20010904/DTD/svg10.dtd">
<svg version="1.0" xmlns="http://www.w3.org/2000/svg" width="100px" height="100px" viewBox="0 0 1000 1000" preserveAspectRatio="xMidYMid meet">
<g id="layer1" fill="#3c5f81" stroke="none">
 <path d="M609 771 c-20 -20 -29 -40 -29 -61 0 -44 76 -190 100 -190 13 0 79 110 92 152 30 102 -88 174 -163 99z"/>
 <path d="M293 764 c-7 -20 434 -466 457 -462 45 9 19 44 -196 259 -122 122 -227 219 -237 219 -10 0 -20 -7 -24 -16z"/>
 <path d="M269 524 c-11 -14 -10 -22 9 -55 l23 -39 -39 0 c-79 0 -82 -62 -4 -68 l42 -3 -22 -39 c-19 -32 -20 -40 -9 -54 22 -26 50 -19 72 19 l21 35 22 -32 c27 -41 69 -46 74 -10 2 13 -4 34 -12 47 -22 34 -21 35 24 35 29 0 42 5 50 21 16 30 -4 49 -51 49 -44 0 -45 1 -23 35 8 13 14 34 12 47 -5 36 -47 31 -74 -10 l-22 -32 -21 35 c-22 38 -50 45 -72 19z"/>
 </g>

</svg>