<!DOCTYPE svg PUBLIC "-//W3C//DTD SVG 20010904//EN" "http://www.w3.org/TR/2001/REC-SVG-20010904/DTD/svg10.dtd">
<svg version="1.0" xmlns="http://www.w3.org/2000/svg" width="100px" height="100px" viewBox="0 0 1000 1000" preserveAspectRatio="xMidYMid meet">
<g id="layer1" fill="#3c5f81" stroke="none">
 <path d="M307 942 c-9 -10 -17 -32 -17 -48 0 -29 43 -104 59 -104 14 0 39 34 56 73 13 32 14 42 3 65 -17 35 -75 43 -101 14z"/>
 <path d="M597 953 c-4 -3 -7 -14 -7 -23 0 -9 -9 -25 -20 -35 l-20 -18 20 -22 c11 -12 20 -29 20 -38 0 -22 26 -33 43 -19 8 7 18 7 27 2 8 -6 18 -10 22 -10 5 0 43 55 56 81 2 6 -38 73 -53 87 -2 2 -12 -1 -24 -7 -13 -7 -22 -8 -26 -1 -7 11 -28 13 -38 3z"/>
 <path d="M386 776 c-35 -18 -58 -23 -82 -19 -77 13 -172 -54 -194 -137 -21 -78 28 -172 108 -206 31 -14 32 -17 32 -70 0 -108 68 -177 176 -177 81 0 152 54 170 129 10 42 15 47 28 29 9 -12 24 -15 61 -13 48 3 50 4 50 33 0 25 -4 30 -27 33 -37 4 -36 22 1 22 61 0 126 42 157 102 18 35 18 121 -1 157 -32 62 -117 108 -180 98 -23 -4 -47 2 -81 19 -35 18 -64 24 -109 24 -45 0 -74 -6 -109 -24z m211 -86 c36 -25 47 -28 69 -20 41 16 71 12 102 -15 36 -30 47 -66 32 -110 -14 -43 -49 -65 -101 -65 -35 0 -47 -6 -80 -39 -42 -45 -102 -66 -152 -56 -43 9 -91 40 -111 70 -14 21 -25 25 -62 25 -56 0 -79 12 -100 52 -22 42 -11 90 27 122 33 28 62 32 104 16 22 -8 32 -6 60 16 68 52 141 53 212 4z m-220 -352 c21 -13 62 -25 93 -28 l55 -5 -27 -27 c-34 -35 -70 -44 -109 -27 -33 13 -69 61 -69 92 0 23 11 22 57 -5z"/>
 <path d="M110 359 c-18 -33 4 -51 58 -47 85 6 81 68 -4 68 -34 0 -46 -5 -54 -21z"/>
 <path d="M211 186 c-30 -32 -25 -70 9 -74 33 -4 73 37 68 70 -4 33 -47 36 -77 4z"/>
 <path d="M567 203 c-26 -25 22 -98 60 -91 25 4 30 54 7 79 -17 19 -54 26 -67 12z"/>
 <path d="M402 138 c-7 -7 -12 -31 -12 -54 0 -82 62 -86 68 -5 4 59 -25 90 -56 59z"/>
 </g>

</svg>