<!DOCTYPE svg PUBLIC "-//W3C//DTD SVG 20010904//EN" "http://www.w3.org/TR/2001/REC-SVG-20010904/DTD/svg10.dtd">
<svg version="1.0" xmlns="http://www.w3.org/2000/svg" width="100px" height="100px" viewBox="0 0 1000 1000" preserveAspectRatio="xMidYMid meet">
<g id="layer1" fill="#3c5f81" stroke="none">
 <path d="M417 736 c-41 -15 -107 -62 -107 -77 0 -5 -39 -9 -88 -9 -75 0 -92 -3 -106 -19 -14 -15 -15 -24 -6 -40 9 -18 20 -21 80 -21 40 0 70 -4 70 -10 0 -5 -17 -10 -38 -10 -50 0 -79 -28 -62 -59 8 -17 20 -21 55 -21 25 0 45 -4 45 -10 0 -6 -28 -10 -63 -10 -50 0 -68 -4 -81 -19 -14 -15 -15 -24 -6 -40 10 -19 20 -21 97 -21 84 0 86 -1 125 -36 22 -20 55 -42 74 -50 50 -21 140 -18 191 7 52 25 109 90 125 141 l11 37 71 3 c66 3 71 5 74 26 6 40 -14 52 -84 52 -61 0 -89 15 -41 22 14 2 23 11 25 26 5 33 -15 52 -53 52 -23 0 -43 10 -70 35 -65 59 -158 79 -238 51z m123 -76 c18 -6 4 -8 -45 -8 -49 0 -63 2 -45 8 14 4 34 8 45 8 11 0 31 -4 45 -8z m105 -100 c4 -7 -48 -10 -150 -10 -102 0 -154 3 -150 10 4 6 65 10 150 10 85 0 146 -4 150 -10z m-2 -107 c-29 -79 -118 -121 -203 -95 -20 6 -14 8 30 12 48 4 55 8 58 28 6 42 -14 52 -99 52 -43 0 -81 5 -84 10 -4 7 48 10 149 10 144 0 155 -1 149 -17z"/>
 </g>

</svg>