<!DOCTYPE svg PUBLIC "-//W3C//DTD SVG 20010904//EN" "http://www.w3.org/TR/2001/REC-SVG-20010904/DTD/svg10.dtd">
<svg version="1.0" xmlns="http://www.w3.org/2000/svg" width="100px" height="100px" viewBox="0 0 1000 1000" preserveAspectRatio="xMidYMid meet">
<g id="layer1" fill="#3c5f81" stroke="none">
 <path d="M197 712 c-22 -24 -21 -35 1 -55 16 -15 52 -17 298 -17 294 0 304 1 304 45 0 44 -10 45 -305 45 -260 0 -283 -1 -298 -18z"/>
 <path d="M188 585 c-9 -21 -8 -28 7 -45 17 -19 31 -20 300 -20 295 0 305 1 305 45 0 44 -9 45 -312 45 l-288 0 -12 -25z"/>
 <path d="M188 464 c-11 -23 -10 -29 11 -45 21 -18 44 -19 293 -19 166 0 277 4 289 10 21 12 25 50 7 68 -9 9 -89 12 -300 12 l-288 0 -12 -26z"/>
 <path d="M199 361 c-21 -16 -22 -22 -11 -45 l12 -26 288 0 c211 0 291 3 300 12 18 18 14 56 -7 68 -12 6 -123 10 -289 10 -249 0 -272 -1 -293 -19z"/>
 </g>

</svg>