<!DOCTYPE svg PUBLIC "-//W3C//DTD SVG 20010904//EN" "http://www.w3.org/TR/2001/REC-SVG-20010904/DTD/svg10.dtd">
<svg version="1.0" xmlns="http://www.w3.org/2000/svg" width="100px" height="100px" viewBox="0 0 1000 1000" preserveAspectRatio="xMidYMid meet">
<g id="layer1" fill="#3c5f81" stroke="none">
 <path d="M225 656 c-45 -20 -93 -72 -105 -114 -14 -55 3 -104 50 -145 84 -72 208 -77 295 -12 l31 23 27 -24 c77 -66 213 -57 294 19 117 112 27 266 -155 267 -64 0 -122 -18 -154 -47 -17 -15 -20 -15 -41 5 -12 11 -35 25 -50 31 -39 15 -156 13 -192 -3z m178 -88 c9 -5 24 -20 33 -34 46 -70 -86 -134 -182 -88 -58 28 -67 70 -24 109 36 32 123 39 173 13z m339 -4 c30 -16 46 -58 31 -83 -31 -51 -146 -65 -201 -24 -32 23 -41 73 -18 92 48 40 128 46 188 15z"/>
 </g>

</svg>