<!DOCTYPE svg PUBLIC "-//W3C//DTD SVG 20010904//EN" "http://www.w3.org/TR/2001/REC-SVG-20010904/DTD/svg10.dtd">
<svg version="1.0" xmlns="http://www.w3.org/2000/svg" width="100px" height="100px" viewBox="0 0 1000 1000" preserveAspectRatio="xMidYMid meet">
<g id="layer1" fill="#3c5f81" stroke="none">
 <path d="M380 828 c-49 -11 -73 -25 -64 -39 3 -5 14 -9 25 -9 12 0 19 -7 19 -20 0 -11 0 -23 0 -27 1 -4 -27 -14 -62 -22 -42 -11 -63 -21 -63 -31 0 -11 10 -14 40 -11 l40 3 -20 -21 c-16 -18 -17 -25 -7 -41 17 -27 16 -30 -15 -30 -59 0 -179 -42 -169 -59 3 -4 65 -6 138 -3 204 7 369 -36 438 -115 55 -62 35 -123 -57 -175 -85 -48 -53 -63 58 -28 190 58 253 179 145 279 -19 18 -23 28 -16 42 20 36 11 82 -22 116 -24 25 -32 41 -32 74 -1 35 -7 46 -36 70 -64 52 -220 73 -340 47z m202 -70 c68 -29 81 -48 26 -37 -24 4 -70 8 -104 9 l-61 0 1 30 c1 30 1 30 46 24 25 -3 66 -15 92 -26z m-107 -128 l0 -40 -56 0 c-55 0 -56 1 -51 25 2 14 -1 32 -8 40 -11 13 -4 15 52 15 l64 0 -1 -40z m172 -26 c12 -7 27 -22 32 -32 10 -18 8 -18 -42 -5 -28 7 -62 13 -75 13 -18 0 -23 4 -18 16 3 9 6 24 6 35 0 18 2 19 38 4 20 -9 47 -23 59 -31z"/>
 <path d="M295 490 c-37 -41 24 -97 63 -58 18 18 14 56 -7 68 -27 14 -35 13 -56 -10z"/>
 <path d="M548 429 c-21 -12 -24 -49 -6 -67 39 -39 100 17 63 58 -20 22 -32 24 -57 9z"/>
 <path d="M150 406 c-28 -34 11 -93 47 -70 32 20 39 41 19 63 -22 24 -49 27 -66 7z"/>
 <path d="M387 382 c-30 -33 -15 -72 28 -72 43 0 59 44 27 73 -24 22 -35 21 -55 -1z"/>
 <path d="M230 281 c-20 -39 22 -82 60 -61 22 12 27 49 8 68 -18 18 -56 14 -68 -7z"/>
 <path d="M477 293 c-15 -15 -7 -63 13 -73 42 -22 82 34 48 68 -13 13 -50 16 -61 5z"/>
 </g>

</svg>