<!DOCTYPE svg PUBLIC "-//W3C//DTD SVG 20010904//EN" "http://www.w3.org/TR/2001/REC-SVG-20010904/DTD/svg10.dtd">
<svg version="1.0" xmlns="http://www.w3.org/2000/svg" width="100px" height="100px" viewBox="0 0 1000 1000" preserveAspectRatio="xMidYMid meet">
<g id="layer1" fill="#3c5f81" stroke="none">
 <path d="M112 768 c-16 -16 -15 -43 2 -57 9 -8 118 -11 381 -9 338 3 369 4 379 21 8 12 8 22 0 35 -10 16 -41 17 -380 20 -279 2 -373 -1 -382 -10z"/>
 <path d="M452 624 c-43 -30 -15 -114 38 -114 28 0 60 35 60 65 0 29 -32 65 -58 65 -10 0 -28 -7 -40 -16z"/>
 <path d="M193 514 c-15 -23 -15 -29 -2 -52 21 -37 43 -48 76 -36 65 23 48 114 -22 114 -26 0 -39 -6 -52 -26z"/>
 <path d="M687 522 c-35 -39 -9 -102 41 -102 29 0 62 34 62 63 0 50 -70 76 -103 39z"/>
 <path d="M447 432 c-36 -40 -9 -102 45 -102 51 0 78 69 40 103 -24 22 -65 21 -85 -1z"/>
 <path d="M205 335 c-14 -13 -25 -31 -25 -40 0 -22 45 -65 68 -65 24 0 62 41 62 67 0 23 -43 63 -67 63 -8 0 -25 -11 -38 -25z"/>
 <path d="M692 344 c-45 -31 -18 -114 38 -114 23 0 60 42 60 67 0 22 -43 63 -64 63 -6 0 -22 -7 -34 -16z"/>
 </g>

</svg>