<!DOCTYPE svg PUBLIC "-//W3C//DTD SVG 20010904//EN" "http://www.w3.org/TR/2001/REC-SVG-20010904/DTD/svg10.dtd">
<svg version="1.0" xmlns="http://www.w3.org/2000/svg" width="100px" height="100px" viewBox="0 0 1000 1000" preserveAspectRatio="xMidYMid meet">
<g id="layer1" fill="#3c5f81" stroke="none">
 <path d="M544 755 c-13 -13 -27 -38 -30 -55 l-6 -30 -180 0 c-104 0 -187 -4 -199 -10 -25 -14 -25 -56 0 -70 25 -13 490 -14 525 0 34 13 60 55 59 97 -2 82 -111 126 -169 68z"/>
 <path d="M122 538 c-7 -7 -12 -19 -12 -28 0 -38 16 -40 302 -40 l278 0 0 -31 c0 -45 47 -89 95 -89 46 0 105 53 105 94 0 35 -25 83 -49 96 -29 15 -703 14 -719 -2z"/>
 <path d="M122 428 c-15 -15 -15 -51 0 -66 8 -8 55 -12 145 -12 l133 0 0 -28 c0 -32 43 -79 75 -82 47 -5 68 2 96 29 42 42 40 92 -5 137 l-34 34 -199 0 c-141 0 -202 -3 -211 -12z"/>
 </g>

</svg>