<!DOCTYPE svg PUBLIC "-//W3C//DTD SVG 20010904//EN" "http://www.w3.org/TR/2001/REC-SVG-20010904/DTD/svg10.dtd">
<svg version="1.0" xmlns="http://www.w3.org/2000/svg" width="100px" height="100px" viewBox="0 0 1000 1000" preserveAspectRatio="xMidYMid meet">
<g id="layer1" fill="#3c5f81" stroke="none">
 <path d="M560 873 c-51 -37 -73 -41 -92 -19 -16 20 -18 20 -34 4 -17 -17 -17 -18 1 -38 10 -11 13 -20 7 -20 -15 0 -82 -59 -82 -72 0 -6 -11 -23 -24 -38 -20 -25 -25 -27 -38 -14 -13 13 -16 13 -28 -1 -10 -12 -11 -21 -3 -34 8 -13 5 -23 -13 -44 -13 -16 -24 -38 -24 -49 0 -12 -10 -32 -22 -45 -14 -15 -22 -38 -23 -61 -1 -20 -10 -54 -21 -75 -18 -38 -18 -39 1 -75 24 -45 90 -86 170 -107 63 -17 231 -23 302 -11 35 6 41 5 40 -9 -1 -10 6 -22 15 -28 14 -9 21 -8 34 5 14 14 15 20 4 33 -15 18 -17 16 38 40 78 34 122 108 93 154 -6 10 -3 20 12 31 18 15 19 20 8 34 -17 20 -30 20 -53 -1 -17 -15 -18 -15 -18 10 0 14 -11 39 -25 55 -30 36 -33 52 -5 27 20 -18 21 -18 41 1 l20 20 -21 19 c-16 14 -23 16 -32 7 -16 -16 -28 -15 -28 1 0 7 -6 19 -12 25 -7 7 -13 26 -14 43 -1 24 1 27 12 18 16 -13 44 4 44 26 0 20 -27 38 -36 24 -10 -17 -33 29 -34 67 0 17 -7 37 -15 44 -8 7 -15 18 -15 26 0 39 -87 57 -130 27z m-12 -190 c-10 -2 -28 -2 -40 0 -13 2 -5 4 17 4 22 1 32 -1 23 -4z m59 -9 c-3 -3 -12 -4 -19 -1 -8 3 -5 6 6 6 11 1 17 -2 13 -5z m-18 -80 c8 -7 -124 -2 -149 6 -14 4 12 6 60 3 47 -3 87 -7 89 -9z m-252 -21 c-4 -3 -10 -3 -14 0 -3 4 0 7 7 7 7 0 10 -3 7 -7z m288 -63 c17 -4 23 -9 15 -10 -37 -6 -257 -8 -275 -2 -18 5 -18 6 5 13 33 9 217 9 255 -1z m-350 -50 c-3 -5 -11 -10 -16 -10 -6 0 -7 5 -4 10 3 6 11 10 16 10 6 0 7 -4 4 -10z m223 -50 c28 0 33 -3 24 -12 -9 -9 -9 -15 1 -26 10 -13 2 -14 -65 -8 -42 4 -94 13 -115 20 l-38 14 35 10 c19 6 55 9 79 7 24 -3 60 -5 79 -5z m182 0 l25 -7 -28 -12 c-44 -17 -111 -26 -103 -13 3 6 2 13 -4 17 -36 22 49 34 110 15z m118 -84 c-7 -47 -156 -95 -294 -96 -76 0 -90 5 -73 27 9 10 8 17 -1 28 -11 13 -1 15 77 15 96 0 190 20 237 50 35 22 59 11 54 -24z m-458 -11 c47 -10 53 -14 39 -31 -9 -11 -8 -18 2 -30 11 -13 9 -14 -17 -9 -58 14 -132 53 -139 74 -11 35 3 42 43 22 20 -10 53 -22 72 -26z"/>
 <path d="M326 792 c-15 -18 -15 -20 2 -35 18 -16 20 -16 37 3 14 16 15 22 5 35 -16 19 -23 19 -44 -3z"/>
 <path d="M172 568 c-16 -16 -15 -33 4 -48 22 -19 54 12 38 37 -14 22 -27 26 -42 11z"/>
 <path d="M122 428 c-16 -16 -15 -33 4 -48 22 -19 54 12 38 37 -14 22 -27 26 -42 11z"/>
 <path d="M240 175 c-10 -12 -10 -18 0 -30 7 -8 18 -15 25 -15 7 0 18 7 25 15 10 12 10 18 0 30 -7 8 -18 15 -25 15 -7 0 -18 -7 -25 -15z"/>
 </g>

</svg>