<!DOCTYPE svg PUBLIC "-//W3C//DTD SVG 20010904//EN" "http://www.w3.org/TR/2001/REC-SVG-20010904/DTD/svg10.dtd">
<svg version="1.0" xmlns="http://www.w3.org/2000/svg" width="100px" height="100px" viewBox="0 0 1000 1000" preserveAspectRatio="xMidYMid meet">
<g id="layer1" fill="#3c5f81" stroke="none">
 <path d="M454 841 c-106 -48 -132 -176 -54 -265 29 -33 45 -85 18 -58 -17 17 -63 15 -78 -3 -14 -17 -5 -35 17 -35 15 0 15 -2 0 -18 -13 -14 -14 -21 -5 -30 8 -8 8 -15 -2 -27 -10 -12 -10 -18 0 -30 10 -12 10 -18 1 -29 -9 -10 -9 -16 -1 -21 8 -5 6 -13 -6 -26 -14 -15 -14 -21 -4 -34 15 -18 61 -20 78 -3 9 9 12 8 12 -7 0 -34 50 -75 90 -75 27 0 43 7 63 28 27 28 27 29 27 181 0 152 0 153 25 173 38 30 55 71 55 131 0 69 -38 126 -99 151 -53 21 -86 20 -137 -3z m132 -60 c64 -39 66 -137 3 -183 l-29 -22 0 -133 0 -133 -35 0 -35 0 0 131 0 130 -35 33 c-30 29 -35 40 -35 78 0 95 88 147 166 99z m-156 -307 c0 -8 -5 -12 -10 -9 -6 4 -8 11 -5 16 9 14 15 11 15 -7z m0 -56 c0 -16 -3 -19 -11 -11 -6 6 -8 16 -5 22 11 17 16 13 16 -11z m0 -60 c0 -16 -3 -19 -11 -11 -6 6 -8 16 -5 22 11 17 16 13 16 -11z m0 -50 c0 -16 -3 -19 -11 -11 -6 6 -8 16 -5 22 11 17 16 13 16 -11z"/>
 </g>

</svg>