<!DOCTYPE svg PUBLIC "-//W3C//DTD SVG 20010904//EN" "http://www.w3.org/TR/2001/REC-SVG-20010904/DTD/svg10.dtd">
<svg version="1.0" xmlns="http://www.w3.org/2000/svg" width="100px" height="100px" viewBox="0 0 1000 1000" preserveAspectRatio="xMidYMid meet">
<g id="layer1" fill="#3c5f81" stroke="none">
 <path d="M462 853 c-13 -3 -43 -23 -67 -46 -68 -65 -73 -145 -15 -226 17 -22 30 -44 30 -49 0 -4 -18 -6 -40 -4 -31 3 -41 0 -47 -13 -4 -11 0 -22 10 -30 12 -9 13 -15 5 -23 -8 -8 -8 -15 2 -27 10 -12 10 -18 0 -30 -10 -12 -10 -18 0 -30 10 -12 10 -18 1 -29 -9 -10 -9 -16 -1 -21 8 -5 6 -13 -6 -26 -29 -32 -11 -52 41 -47 35 4 45 2 45 -9 0 -8 11 -25 25 -38 35 -36 88 -34 126 4 l29 29 0 152 0 152 26 21 c69 54 72 170 6 241 -45 48 -97 63 -170 49z m103 -68 c72 -35 74 -154 3 -191 -25 -13 -28 -20 -28 -64 l0 -50 -35 0 -35 0 0 48 c0 40 -5 53 -30 77 -16 15 -32 41 -35 56 -10 44 12 98 49 120 38 23 67 24 111 4z m-155 -311 c0 -8 -5 -12 -10 -9 -6 4 -8 11 -5 16 9 14 15 11 15 -7z m-3 -61 c-4 -3 -7 0 -7 7 0 7 3 10 7 7 3 -4 3 -10 0 -14z m0 -60 c-4 -3 -7 0 -7 7 0 7 3 10 7 7 3 -4 3 -10 0 -14z m0 -50 c-4 -3 -7 0 -7 7 0 7 3 10 7 7 3 -4 3 -10 0 -14z"/>
 </g>

</svg>