<!DOCTYPE svg PUBLIC "-//W3C//DTD SVG 20010904//EN" "http://www.w3.org/TR/2001/REC-SVG-20010904/DTD/svg10.dtd">
<svg version="1.0" xmlns="http://www.w3.org/2000/svg" width="100px" height="100px" viewBox="0 0 1000 1000" preserveAspectRatio="xMidYMid meet">
<g id="layer1" fill="#3c5f81" stroke="none">
 <path d="M425 701 c-3 -6 -24 -11 -45 -11 -38 0 -41 -3 -94 -82 l-55 -81 -3 79 -3 79 -45 0 -45 0 0 -170 0 -170 41 -3 41 -3 54 83 54 82 5 -79 5 -80 45 0 45 0 5 148 5 149 49 -149 c27 -81 53 -154 58 -160 11 -14 64 -18 71 -5 3 4 -23 90 -57 192 l-61 185 -32 3 c-17 2 -34 -2 -38 -7z"/>
 <path d="M598 684 c-4 -3 19 -81 51 -172 l58 -167 40 -3 c24 -2 44 2 50 10 18 21 114 311 109 325 -3 8 -22 13 -46 13 -37 0 -42 -3 -51 -30 -10 -27 -15 -30 -54 -30 -38 0 -46 4 -57 28 -11 22 -21 28 -53 30 -23 2 -44 0 -47 -4z m168 -160 c-3 -9 -6 -21 -6 -27 0 -16 -20 14 -20 31 0 6 7 12 16 12 11 0 14 -5 10 -16z"/>
 </g>

</svg>